<?xml version="1.0" standalone="no"?>
<!DOCTYPE svg PUBLIC "-//W3C//DTD SVG 20010904//EN"
 "http://www.w3.org/TR/2001/REC-SVG-20010904/DTD/svg10.dtd">
<svg version="1.0" xmlns="http://www.w3.org/2000/svg"
 width="300.000000pt" height="81.000000pt" viewBox="0 0 300.000000 81.000000"
 preserveAspectRatio="xMidYMid meet">
<metadata>
Created by potrace 1.10, written by Peter Selinger 2001-2011
</metadata>
<g transform="translate(0.000000,81.000000) scale(0.100000,-0.100000)"
fill="#ffffff" stroke="none">
<path d="M1020 383 c0 -236 1 -243 20 -243 19 0 20 7 20 243 0 236 -1 243 -20
243 -19 0 -20 -7 -20 -243z"/>
<path d="M2430 429 l0 -179 25 0 c25 0 25 1 25 89 0 89 0 89 29 101 16 6 39 9
50 5 19 -6 21 -14 21 -101 l0 -94 31 0 c24 0 30 3 25 16 -3 9 -6 54 -6 100 0
71 -3 87 -20 104 -24 24 -77 26 -108 4 l-22 -15 0 74 c0 73 -1 75 -25 75 l-25
0 0 -179z"/>
<path d="M130 550 c0 -16 7 -20 31 -20 41 0 58 -24 59 -77 0 -31 -4 -43 -14
-43 -8 0 -18 5 -21 10 -8 14 -35 -6 -35 -26 0 -20 29 -44 55 -44 54 0 87 105
49 158 -15 22 -15 22 33 22 l48 0 -2 -77 -2 -78 -75 -51 c-72 -48 -75 -52 -58
-67 17 -15 22 -13 80 34 l62 50 -7 -46 c-6 -44 -5 -45 21 -45 l26 0 0 140 0
140 90 0 c83 0 90 1 90 20 0 19 -7 20 -215 20 -208 0 -215 -1 -215 -20z"/>
<path d="M622 554 c-26 -18 -30 -75 -7 -94 20 -17 30 -6 30 33 0 26 5 33 23
35 26 4 37 -17 28 -53 -10 -38 -41 -49 -151 -49 l-100 -1 -3 -32 c-2 -24 2
-34 18 -43 28 -15 50 -6 50 20 0 16 6 20 35 20 29 0 43 -8 74 -40 34 -36 43
-40 85 -40 26 0 56 5 67 10 17 10 19 7 19 -30 0 -33 3 -40 20 -40 19 0 20 7
20 140 l0 140 25 0 c18 0 25 5 25 20 0 17 -7 20 -45 20 l-45 0 0 -100 c0 -88
-2 -100 -19 -110 -38 -20 -131 -7 -131 18 0 5 16 14 35 21 72 26 97 100 50
146 -28 29 -70 32 -103 9z m-132 -158 c0 -3 -4 -8 -10 -11 -5 -3 -10 -1 -10 4
0 6 5 11 10 11 6 0 10 -2 10 -4z"/>
<path d="M1312 553 c-49 -24 -75 -68 -80 -132 -7 -123 74 -187 212 -167 l46 7
0 80 0 79 -55 0 c-48 0 -55 -2 -55 -20 0 -16 7 -20 30 -20 29 0 30 -2 30 -45
l0 -45 -46 0 c-37 0 -51 5 -75 29 -24 25 -29 37 -29 81 0 28 6 63 14 79 24 45
84 63 139 42 21 -8 26 -6 30 10 4 15 -1 23 -19 30 -38 14 -105 10 -142 -8z"/>
<path d="M2253 525 c5 -30 3 -35 -14 -35 -12 0 -19 -7 -19 -20 0 -13 7 -20 18
-20 16 0 18 -7 14 -60 -6 -76 2 -106 33 -126 35 -23 95 -12 95 17 0 17 -4 20
-29 14 -38 -8 -44 3 -46 87 l-1 68 33 0 c26 0 33 4 33 20 0 16 -7 20 -35 20
-36 0 -36 0 -29 35 6 34 5 35 -26 35 -32 0 -32 -1 -27 -35z m37 -60 c0 -8 -4
-15 -10 -15 -5 0 -10 7 -10 15 0 8 5 15 10 15 6 0 10 -7 10 -15z"/>
<path d="M1550 370 l0 -120 25 0 c25 0 25 1 25 80 0 68 3 83 21 101 16 16 29
20 50 15 26 -5 29 -3 29 19 0 21 -5 25 -30 25 -19 0 -40 -9 -55 -25 l-25 -24
0 24 c0 18 -5 25 -20 25 -19 0 -20 -7 -20 -120z"/>
<path d="M1758 478 c-23 -8 -26 -13 -18 -28 8 -15 15 -16 48 -7 50 13 72 5 72
-28 0 -23 -4 -25 -40 -25 -75 0 -120 -42 -100 -94 17 -45 84 -61 128 -30 20
14 22 14 22 -1 0 -11 7 -15 21 -13 21 3 22 8 20 96 -1 52 -4 99 -7 106 -12 32
-90 45 -146 24z m132 -108 c0 -5 -2 -10 -4 -10 -3 0 -8 5 -11 10 -3 6 -1 10 4
10 6 0 11 -4 11 -10z m-30 -34 c0 -31 -22 -48 -57 -44 -58 7 -32 68 29 68 23
0 28 -4 28 -24z"/>
<path d="M1975 370 l0 -120 27 0 27 0 3 92 c3 91 3 93 31 102 51 18 62 1 65
-103 3 -89 3 -91 27 -91 25 0 25 1 25 98 0 90 -2 100 -23 120 -27 25 -74 29
-103 7 -25 -19 -34 -19 -34 0 0 9 -9 15 -22 15 -23 0 -23 -2 -23 -120z"/>
<path d="M2728 478 c-23 -8 -26 -13 -18 -28 9 -16 15 -17 40 -8 45 15 80 3 80
-27 0 -23 -4 -25 -40 -25 -77 0 -127 -50 -100 -100 22 -41 87 -53 128 -24 20
14 22 14 22 0 0 -9 9 -16 20 -16 19 0 20 7 20 99 0 96 -1 100 -26 120 -29 23
-80 26 -126 9z m102 -142 c0 -31 -22 -48 -57 -44 -58 7 -32 68 29 68 23 0 28
-4 28 -24z"/>
</g>
</svg>
